<?xml version="1.0" encoding="utf-8"?>
<!-- Generator: Adobe Illustrator 16.0.4, SVG Export Plug-In . SVG Version: 6.00 Build 0)  -->
<!DOCTYPE svg PUBLIC "-//W3C//DTD SVG 1.1//EN" "http://www.w3.org/Graphics/SVG/1.1/DTD/svg11.dtd">
<svg version="1.1" id="Layer_1" xmlns="http://www.w3.org/2000/svg" xmlns:xlink="http://www.w3.org/1999/xlink" x="0px" y="0px"
	 width="121.94px" height="51px" viewBox="0 0 121.94 51" enable-background="new 0 0 121.94 51" xml:space="preserve">
<circle fill="none" stroke="#202020" stroke-width="2" stroke-miterlimit="10" cx="23.892" cy="37.763" r="12.237"/>
<circle fill="none" stroke="#202020" stroke-width="2" stroke-miterlimit="10" cx="23.892" cy="37.763" r="9.236"/>
<path stroke="#202020" stroke-miterlimit="10" d="M20.469,41.186h6.846V34.34h-6.846V41.186z M21.06,37.763
	c0-1.564,1.268-2.832,2.832-2.832c1.563,0,2.832,1.268,2.832,2.832s-1.269,2.832-2.832,2.832
	C22.327,40.595,21.06,39.327,21.06,37.763"/>
<path fill="none" stroke="#202020" stroke-miterlimit="10" d="M20.469,41.186h6.846V34.34h-6.846V41.186z M21.06,37.763
	c0-1.564,1.268-2.832,2.832-2.832c1.563,0,2.832,1.268,2.832,2.832s-1.269,2.832-2.832,2.832
	C22.327,40.595,21.06,39.327,21.06,37.763z"/>
<line fill="none" stroke="#202020" stroke-width="2" stroke-miterlimit="10" x1="26.942" y1="34.747" x2="30.424" y2="31.266"/>
<line fill="none" stroke="#202020" stroke-width="2" stroke-miterlimit="10" x1="20.999" y1="34.871" x2="17.596" y2="31.467"/>
<line fill="none" stroke="#202020" stroke-width="2" stroke-miterlimit="10" x1="23.892" y1="34.339" x2="23.892" y2="28.771"/>
<line fill="none" stroke="#202020" stroke-width="2" stroke-miterlimit="10" x1="23.892" y1="40.931" x2="23.892" y2="46.673"/>
<line fill="none" stroke="#202020" stroke-width="2" stroke-miterlimit="10" x1="27.099" y1="37.763" x2="33.123" y2="37.763"/>
<line fill="none" stroke="#202020" stroke-width="2" stroke-miterlimit="10" x1="21.06" y1="37.763" x2="14.655" y2="37.763"/>
<line fill="none" stroke="#202020" stroke-width="2" stroke-miterlimit="10" x1="26.553" y1="40.385" x2="30.139" y2="43.97"/>
<line fill="none" stroke="#202020" stroke-width="2" stroke-miterlimit="10" x1="21.06" y1="40.595" x2="17.379" y2="44.275"/>
<line fill="none" stroke="#202020" stroke-width="2" stroke-miterlimit="10" x1="12.645" y1="42.935" x2="7.703" y2="42.935"/>
<line fill="none" stroke="#202020" stroke-width="2" stroke-miterlimit="10" x1="7.781" y1="40.723" x2="0.649" y2="40.723"/>
<line fill="none" stroke="#202020" stroke-width="2" stroke-miterlimit="10" x1="70.177" y1="45.192" x2="35.641" y2="41.186"/>
<line fill="none" stroke="#202020" stroke-width="2" stroke-miterlimit="10" x1="80.855" y1="37.763" x2="36.129" y2="37.763"/>
<line fill="none" stroke="#202020" stroke-width="2" stroke-miterlimit="10" x1="89.975" y1="30.538" x2="35.641" y2="34.339"/>
<line fill="none" stroke="#202020" stroke-width="2" stroke-miterlimit="10" x1="101.277" y1="21.73" x2="33.387" y2="30.043"/>
<line fill="none" stroke="#202020" stroke-width="2" stroke-miterlimit="10" x1="110.475" y1="13.39" x2="25.28" y2="25.525"/>
<line fill="none" stroke="#202020" stroke-width="2" stroke-miterlimit="10" x1="118.606" y1="1.646" x2="19.298" y2="21.704"/>
<polyline fill="none" stroke="#202020" stroke-width="2" stroke-miterlimit="10" points="108.841,13.623 111.748,13.183 
	119.75,1.438 117.487,1.873 "/>
<path fill="none" stroke="#202020" stroke-width="2" stroke-miterlimit="10" d="M105.416,14.11c0,0-0.515,4.853-4.139,7.62
	l-2.548,0.312"/>
<path fill="none" stroke="#202020" stroke-width="2" stroke-miterlimit="10" d="M94.31,22.583c0,0-2.384,6.355-4.606,7.974
	l-1.063,0.074"/>
<path fill="none" stroke="#202020" stroke-width="2" stroke-miterlimit="10" d="M85.143,30.631c0,0-1.676,5.236-4.561,7.131h-0.974"
	/>
<path fill="none" stroke="#202020" stroke-width="2" stroke-miterlimit="10" d="M74.658,37.763c0,0-0.468,4.311-4.481,7.429
	l-1.239-0.144"/>
<path fill="none" stroke="#202020" stroke-width="2" stroke-miterlimit="10" d="M8.327,33.812c0,0-0.631-9.764,11.666-12.248"/>
<line fill="none" stroke="#202020" stroke-width="2" stroke-miterlimit="10" x1="8.327" y1="42.935" x2="8.327" y2="33.5"/>
<path fill="none" stroke="#202020" stroke-width="2" stroke-miterlimit="10" d="M9.307,29.132c0,0-8.346,1.874-8.307,9.473"/>
<line fill="none" stroke="#202020" stroke-width="2" stroke-miterlimit="10" x1="1" y1="38.218" x2="1" y2="41.343"/>
</svg>
