<?xml version="1.0" encoding="utf-8"?>
<!-- Generator: Adobe Illustrator 16.0.0, SVG Export Plug-In . SVG Version: 6.00 Build 0)  -->
<!DOCTYPE svg PUBLIC "-//W3C//DTD SVG 1.1//EN" "http://www.w3.org/Graphics/SVG/1.1/DTD/svg11.dtd">
<svg version="1.1" id="Layer_1" xmlns="http://www.w3.org/2000/svg" xmlns:xlink="http://www.w3.org/1999/xlink" x="0px" y="0px"
	 width="2000px" height="1000px" viewBox="0 0 2000 1000" enable-background="new 0 0 2000 1000" xml:space="preserve">
<path opacity="0.2" fill="none" d="M1077,851h0.557c154.229-284,309.788-567.352,464.486-851h-85.555
	C1329.863,275.661,1203,551.048,1077,826.826V851z"/>
<path opacity="0.3" fill="none" d="M1082,883.286C1306,588.98,1531.495,295.195,1756.161,0h-103.545
	C1462.417,288.685,1272,577.469,1082,866.865V883.286z"/>
<path opacity="0.3" fill="none" d="M1077,767v18.067C1171,523.316,1265.947,261.861,1360.555,0h-74.824
	c-73.13,255.815-146.818,511-219.699,767H1077z"/>
<path opacity="0.3" fill="none" d="M1101.627,946.859c1.66,2.137,3.536,4.134,5.535,5.982
	C1559.125,805.287,2011.213,655.971,2465,508.903V396.425C2011.541,581.338,1555.729,762.779,1101.627,946.859L1101.627,946.859z"/>
<path opacity="0.3" fill="none" d="M1082,928h4.605c420.713-298,839.646-596.569,1260.181-894.232
	c19.21-13.643,34.856-24.774,47.517-33.768h-184.519C1834.585,308.374,1458,613.862,1082,922.215V928z"/>
<path opacity="0.3" fill="none" d="M1095.015,932.665C1095.015,932.666,1095.015,932.666,1095.015,932.665
	c0.404,2.315,1.099,4.505,2.024,6.61c454.934-230.579,911.82-458.136,1367.961-687.97V121.144
	c-10.244,6.076-22.107,13.11-35.808,21.234C1985.048,405.67,1540.034,669.395,1095.015,932.665z"/>
<path opacity="0.3" fill="none" d="M1082,910.933C1397,607.596,1711.253,303.918,2025.083,0h-131.685
	C1622.867,300.428,1353,599.655,1082,899.7V910.933z"/>
<path opacity="0.3" fill="none" d="M1060.049,675.986l1.162,18.932C1106.626,463.092,1151.822,231.735,1197.354,0h-69.214
	c-28.262,223.918-56.624,447.812-84.748,671.622C1051.434,673.696,1060.049,675.986,1060.049,675.986z"/>
<path opacity="0.3" fill="none" d="M921.828,928H929v-3.465C563,617.05,197.461,308.958-167.285,0h-177.918
	c9.822,7.212,20.931,15.378,33.522,24.597C99.572,323.819,509.829,627,921.828,928z"/>
<path opacity="0.3" fill="none" d="M992.204,539.009l7.796-1.085v-14.488l5-3.344v433.012c0-120.099,0.216-433.012,0.216-433.012
	l5.784,3.344v14.488l7.709,1.113c2.352-0.586,3.679-2.713,4.497-4.6c0.736-1.697,0.794-3.2,0.794-3.2s-0.255,1.503-0.991,3.2
	c0.331-7.731,0.991-15.463,0.991-23.195v-71.388l3.463-4.888l0.203-0.288c6.18-144.886,12.313-289.752,18.363-434.679h-68.806
	c5.019,179.727,9.905,359.439,14.79,539.004L992.204,539.009z"/>
<path opacity="0.3" fill="none" d="M929,899.864C667,599.646,403.936,300.254,141.035,0H12.865
	C318.579,303.941,622,608.89,929,913.252V899.864z"/>
<path opacity="0.3" fill="none" d="M-457.507,0H-458v0.716C-457.834,0.478-457.672,0.238-457.507,0z"/>
<path opacity="0.3" fill="none" d="M929,867.529C745,577.977,560.157,289.07,375.907,0H275.043
	C492.348,294.979,710,589.474,929,884.607V867.529z"/>
<path opacity="0.3" fill="none" d="M950.746,676.109c0,0,10.459-2.834,19.066-5.022c0.003-0.001,0.005-0.001,0.008-0.002
	C945.108,446.732,919.614,223.282,894.418,0h-69.05C867.145,228.916,909,457.818,950,686.953L950.746,676.109z"/>
<path opacity="0.3" fill="none" d="M934,851v-21.074C812,553.188,690.677,276.856,568.784,0H486.06
	c149.313,283.856,298.117,568,446.815,851H934z"/>
<path opacity="0.3" fill="none" d="M934,767h11.245c-0.004-0.015-0.008-0.029-0.012-0.045l-0.037-0.053l0.004-0.067
	C876.795,511.372,808.297,255.765,739.439,0h-75.605C754.069,262.562,844,525.136,934,787.069V767z"/>
<path opacity="0.3" fill="none" d="M874,973.665C429.724,929.974-13.955,887.214-458,843.673v100.368
	c444.478,13.615,887.847,25.008,1332,38.46V973.665z"/>
<path opacity="0.2" fill="none" d="M1019,592.527c0-0.149,1.156-0.153,1.924-0.056c0.376-8.782,0.75-17.561,1.125-26.343
	c-1.934,1.217-3.049,1.883-3.049,1.883V592.527z"/>
<path opacity="0.2" fill="none" d="M1137,998h36.196c-12.064-0.784-24.133-1.57-36.196-2.354V998z"/>
<path opacity="0.3" fill="none" d="M874.478,970.142c1.421-0.52,5.87-2.223,11.384-5.083c2.743-1.422,5.715-3.131,8.731-5.122
	c3.043-2.01,6.099-4.306,8.919-6.89c1.892-1.73,3.676-3.588,5.278-5.575c1.818-2.255,3.4-4.669,4.637-7.251
	c0.989-2.063,1.753-4.222,2.243-6.491C483.08,667.81,48.654,401.796-385.238,136.939c-31.678-19.404-55.352-33.954-72.762-44.682
	v132.896c2.161,1.128,4.352,2.272,6.595,3.443C3.481,468.401,459.337,701.088,913.428,940.211c-1.237,2.582-2.819,5.001-4.637,7.256
	C452.791,753.703-3.063,565.936-458,372.464v114.5C-3.786,641.959,449.1,795.222,903.513,953.045
	c-2.82,2.583-5.876,4.881-8.919,6.891C443.177,844.257-6.82,731.132-458,617.55v103.719
	C-9.542,802.116,437.549,883.746,885.862,965.058C880.348,967.918,875.898,969.622,874.478,970.142z"/>
<path opacity="0.3" fill="none" d="M1116.082,959.783c3.742,2.489,7.484,4.542,10.734,6.153c4.803,2.382,8.579,3.801,9.781,4.233
	c-1.202-0.433-4.977-1.852-9.78-4.233C1572.659,891.292,2018.59,816.396,2465,742.246V638.887
	c-449.658,107.432-898.665,213.642-1348.922,320.894C1116.08,959.781,1116.081,959.782,1116.082,959.783z"/>
<polygon opacity="0.2" fill="none" points="979.553,429.825 978.771,433.182 979.559,429.834 "/>
<path opacity="0.2" fill="none" d="M990.264,538.343c-3.209-2.05-4.264-7.105-4.264-7.105S987.055,536.354,990.264,538.343z"/>
<polygon opacity="0.2" fill="none" points="1031.083,429.825 1030.885,430.121 1031.086,429.837 "/>
<path opacity="0.2" fill="none" d="M765.916,998H874v-5.369C837.965,994.382,801.939,996.18,765.916,998z"/>
<path opacity="0.3" fill="none" d="M1137,984.224c382-7.497,766.304-10.538,1147.418-18.414
	c69.266-1.142,129.027-2.129,180.582-2.982v-98.613c-442.383,37.485-885.526,73.123-1328,110.872V984.224z"/>
<radialGradient id="SVGID_1_" cx="969.1162" cy="1019.5605" r="1782.2252" gradientTransform="matrix(0.9994 -0.0336 0.0336 0.9994 2.382 33.1889)" gradientUnits="userSpaceOnUse">
	<stop  offset="0.0242" style="stop-color:#3E6D68"/>
	<stop  offset="1" style="stop-color:#012E29"/>
</radialGradient>
<path opacity="0.3" fill="url(#SVGID_1_)" d="M874,982.501c-444.153-13.452-887.522-24.845-1332-38.46V998H765.916
	c36.023-1.82,72.05-3.618,108.084-5.369V982.501z"/>
<radialGradient id="SVGID_2_" cx="969.0581" cy="1019.5605" r="1782.1689" gradientTransform="matrix(0.9994 -0.0336 0.0336 0.9994 2.382 33.1889)" gradientUnits="userSpaceOnUse">
	<stop  offset="0.0242" style="stop-color:#3E6D68"/>
	<stop  offset="1" style="stop-color:#012E29"/>
</radialGradient>
<path opacity="0.3" fill="url(#SVGID_2_)" d="M903.513,953.045C449.1,795.222-3.786,641.959-458,486.963V617.55
	C-6.82,731.132,443.177,844.257,894.593,959.936C897.636,957.926,900.692,955.628,903.513,953.045z"/>
<radialGradient id="SVGID_3_" cx="968.6543" cy="1019.5449" r="1782.1494" gradientTransform="matrix(0.9994 -0.0336 0.0336 0.9994 2.382 33.1889)" gradientUnits="userSpaceOnUse">
	<stop  offset="0.0242" style="stop-color:#3E6D68"/>
	<stop  offset="1" style="stop-color:#012E29"/>
</radialGradient>
<path opacity="0.2" fill="url(#SVGID_3_)" d="M1023.009,534.438c0.736-1.697,0.991-3.2,0.991-3.2v-19.995
	C1024,518.975,1023.34,526.706,1023.009,534.438z"/>
<radialGradient id="SVGID_4_" cx="969.0581" cy="1019.5586" r="1782.1652" gradientTransform="matrix(0.9994 -0.0336 0.0336 0.9994 2.382 33.1889)" gradientUnits="userSpaceOnUse">
	<stop  offset="0.0242" style="stop-color:#3E6D68"/>
	<stop  offset="1" style="stop-color:#012E29"/>
</radialGradient>
<path opacity="0.3" fill="url(#SVGID_4_)" d="M913.428,940.211C459.337,701.088,3.481,468.401-451.405,228.596
	c-2.243-1.17-4.434-2.314-6.595-3.443v147.311C-3.063,565.936,452.791,753.703,908.791,947.467
	C910.609,945.212,912.191,942.793,913.428,940.211z"/>
<radialGradient id="SVGID_5_" cx="969.1201" cy="1019.5752" r="1782.092" gradientTransform="matrix(0.9994 -0.0336 0.0336 0.9994 2.382 33.1889)" gradientUnits="userSpaceOnUse">
	<stop  offset="0.0242" style="stop-color:#3E6D68"/>
	<stop  offset="1" style="stop-color:#012E29"/>
</radialGradient>
<path opacity="0.3" fill="url(#SVGID_5_)" d="M1137,984.224v11.422c12.063,0.784,24.132,1.57,36.196,2.354H2465v-35.173
	c-51.555,0.854-111.316,1.841-180.582,2.982C1903.304,973.686,1519,976.727,1137,984.224z"/>
<radialGradient id="SVGID_6_" cx="969.0591" cy="1019.5557" r="1782.153" gradientTransform="matrix(0.9994 -0.0336 0.0336 0.9994 2.382 33.1889)" gradientUnits="userSpaceOnUse">
	<stop  offset="0.0242" style="stop-color:#3E6D68"/>
	<stop  offset="1" style="stop-color:#012E29"/>
</radialGradient>
<path opacity="0.3" fill="url(#SVGID_6_)" d="M1107.164,952.844c2.81,2.6,5.869,4.911,8.914,6.937
	C1566.335,852.528,2015.342,746.318,2465,638.887V508.903c-453.787,147.067-905.875,296.384-1357.838,443.938
	C1107.163,952.843,1107.163,952.843,1107.164,952.844z"/>
<radialGradient id="SVGID_7_" cx="969.3389" cy="1019.5674" r="1781.3054" gradientTransform="matrix(0.9994 -0.0336 0.0336 0.9994 2.382 33.1889)" gradientUnits="userSpaceOnUse">
	<stop  offset="0.0242" style="stop-color:#3E6D68"/>
	<stop  offset="1" style="stop-color:#012E29"/>
</radialGradient>
<path opacity="0.3" fill="url(#SVGID_7_)" d="M1077,826.826C1203,551.048,1329.863,275.661,1456.488,0h-95.934
	C1265.947,261.861,1171,523.316,1077,785.067V826.826z"/>
<radialGradient id="SVGID_8_" cx="969.0698" cy="1018.9063" r="1781.7211" gradientTransform="matrix(0.9994 -0.0336 0.0336 0.9994 2.382 33.1889)" gradientUnits="userSpaceOnUse">
	<stop  offset="0.0242" style="stop-color:#3E6D68"/>
	<stop  offset="1" style="stop-color:#012E29"/>
</radialGradient>
<path opacity="0.3" fill="url(#SVGID_8_)" d="M1065.622,767h0.409c72.881-256,146.569-511.185,219.699-767h-88.376
	c-45.532,231.735-90.729,463.092-136.144,694.918L1065.622,767z"/>
<radialGradient id="SVGID_9_" cx="969.0625" cy="1019.5576" r="1782.1653" gradientTransform="matrix(0.9994 -0.0336 0.0336 0.9994 2.382 33.1889)" gradientUnits="userSpaceOnUse">
	<stop  offset="0.0242" style="stop-color:#3E6D68"/>
	<stop  offset="1" style="stop-color:#012E29"/>
</radialGradient>
<path opacity="0.3" fill="url(#SVGID_9_)" d="M1030.885,430.121l0.198-0.296l0.003,0.012l0.009-0.012l11.15,46.806
	c8.919,34.545,11.163,51.262,11.163,51.262c-1.789,17.944-23.03,32.99-31.266,38.178c-0.033,0.021-0.061,0.038-0.094,0.059
	c-0.375,8.782-0.749,17.561-1.125,26.343c0.029,0.004,0.062,0.007,0.09,0.011c4.687,0.676,11.179,5.604,11.179,5.604l6.685,72.418
	c1.438,0.359,2.962,0.717,4.508,1.116c0.002,0.001,0.005,0.001,0.008,0.002c28.124-223.811,56.486-447.704,84.748-671.622h-82.111
	c-6.05,144.926-12.184,289.793-18.363,434.679L1030.885,430.121z"/>
<radialGradient id="SVGID_10_" cx="969.0615" cy="1019.5449" r="1782.1783" gradientTransform="matrix(0.9994 -0.0336 0.0336 0.9994 2.382 33.1889)" gradientUnits="userSpaceOnUse">
	<stop  offset="0.0242" style="stop-color:#3E6D68"/>
	<stop  offset="1" style="stop-color:#012E29"/>
</radialGradient>
<path opacity="0.3" fill="url(#SVGID_10_)" d="M1082,851v15.865C1272,577.469,1462.417,288.685,1652.616,0h-110.573
	c-154.698,283.648-310.257,567-464.486,851H1082z"/>
<radialGradient id="SVGID_11_" cx="968.6968" cy="1019.5449" r="1782.6833" gradientTransform="matrix(0.9994 -0.0336 0.0336 0.9994 2.382 33.1889)" gradientUnits="userSpaceOnUse">
	<stop  offset="0.0242" style="stop-color:#3E6D68"/>
	<stop  offset="1" style="stop-color:#012E29"/>
</radialGradient>
<path opacity="0.3" fill="url(#SVGID_11_)" d="M1082,922.215C1458,613.862,1834.585,308.374,2209.784,0h-184.701
	C1711.253,303.918,1397,607.596,1082,910.933V922.215z"/>
<radialGradient id="SVGID_12_" cx="969.0757" cy="1019.5576" r="1782.1472" gradientTransform="matrix(0.9994 -0.0336 0.0336 0.9994 2.382 33.1889)" gradientUnits="userSpaceOnUse">
	<stop  offset="0.0242" style="stop-color:#3E6D68"/>
	<stop  offset="1" style="stop-color:#012E29"/>
</radialGradient>
<path opacity="0.3" fill="url(#SVGID_12_)" d="M971.992,670.535l6.667-72.434c0,0,9.341-6.688,13.341-5.574v-24.516
	c0,0-32.345-17.829-34.57-40.119c0,0,2.191-16.717,11.11-51.262l10.23-43.448l0.782-3.357l0.006,0.009l0.002-0.009l6.439,10.03
	v91.383c0,0,1.055,5.056,4.264,7.105c0.479,0.297,1.004,0.527,1.583,0.657c0.001,0,0.003,0,0.004,0l0.162,0.004
	C987.128,359.439,982.242,179.727,977.224,0h-82.806c25.196,223.282,50.69,446.732,75.402,671.085
	C970.563,670.896,971.284,670.712,971.992,670.535z"/>
<radialGradient id="SVGID_13_" cx="968.688" cy="1019.5449" r="1782.8792" gradientTransform="matrix(0.9994 -0.0336 0.0336 0.9994 2.382 33.1889)" gradientUnits="userSpaceOnUse">
	<stop  offset="0.0242" style="stop-color:#3E6D68"/>
	<stop  offset="1" style="stop-color:#012E29"/>
</radialGradient>
<path opacity="0.3" fill="url(#SVGID_13_)" d="M1082,899.7C1353,599.655,1622.867,300.428,1893.398,0h-137.237
	C1531.495,295.195,1306,588.98,1082,883.286V899.7z"/>
<radialGradient id="SVGID_14_" cx="969.541" cy="1019.5752" r="1782.4493" gradientTransform="matrix(0.9994 -0.0336 0.0336 0.9994 2.382 33.1889)" gradientUnits="userSpaceOnUse">
	<stop  offset="0.0242" style="stop-color:#3E6D68"/>
	<stop  offset="1" style="stop-color:#012E29"/>
</radialGradient>
<path opacity="0.3" fill="url(#SVGID_14_)" d="M929,913.252C622,608.89,318.579,303.941,12.865,0h-180.15
	C197.461,308.958,563,617.05,929,924.535V913.252z"/>
<radialGradient id="SVGID_15_" cx="969.0566" cy="1019.5801" r="1782.1815" gradientTransform="matrix(0.9994 -0.0336 0.0336 0.9994 2.382 33.1889)" gradientUnits="userSpaceOnUse">
	<stop  offset="0.0242" style="stop-color:#3E6D68"/>
	<stop  offset="1" style="stop-color:#012E29"/>
</radialGradient>
<path opacity="0.3" fill="url(#SVGID_15_)" d="M-458,92.258c17.41,10.728,41.084,25.278,72.762,44.682
	C48.654,401.796,483.08,667.81,915.67,933.729c0.399-1.849,0.621-3.729,0.621-5.729h5.537
	c-412-301-822.256-604.181-1233.509-903.403C-324.272,15.378-335.382,7.212-345.204,0h-112.303
	c-0.166,0.238-0.328,0.478-0.493,0.716V92.258z"/>
<radialGradient id="SVGID_16_" cx="969.5532" cy="1019.5752" r="1782.4551" gradientTransform="matrix(0.9994 -0.0336 0.0336 0.9994 2.382 33.1889)" gradientUnits="userSpaceOnUse">
	<stop  offset="0.0242" style="stop-color:#3E6D68"/>
	<stop  offset="1" style="stop-color:#012E29"/>
</radialGradient>
<path opacity="0.3" fill="url(#SVGID_16_)" d="M929,884.607C710,589.474,492.348,294.979,275.043,0H141.035
	C403.936,300.254,667,599.646,929,899.864V884.607z"/>
<radialGradient id="SVGID_17_" cx="969.0615" cy="1019.5762" r="1782.179" gradientTransform="matrix(0.9994 -0.0336 0.0336 0.9994 2.382 33.1889)" gradientUnits="userSpaceOnUse">
	<stop  offset="0.0242" style="stop-color:#3E6D68"/>
	<stop  offset="1" style="stop-color:#012E29"/>
</radialGradient>
<path opacity="0.3" fill="url(#SVGID_17_)" d="M929,851h3.875C784.177,568,635.373,283.856,486.06,0H375.907
	C560.157,289.07,745,577.977,929,867.529V851z"/>
<radialGradient id="SVGID_18_" cx="917.71" cy="765.082" r="0.0195" gradientTransform="matrix(0.9994 -0.0336 0.0336 0.9994 2.382 33.1889)" gradientUnits="userSpaceOnUse">
	<stop  offset="0.0242" style="stop-color:#3E6D68"/>
	<stop  offset="1" style="stop-color:#012E29"/>
</radialGradient>
<path opacity="0.2" fill="url(#SVGID_18_)" d="M945.233,766.955c0.004,0.016,0.008,0.03,0.012,0.045h0.019L945.233,766.955z"/>
<radialGradient id="SVGID_19_" cx="968.8447" cy="1019.5586" r="1782.1017" gradientTransform="matrix(0.9994 -0.0336 0.0336 0.9994 2.382 33.1889)" gradientUnits="userSpaceOnUse">
	<stop  offset="0.0242" style="stop-color:#3E6D68"/>
	<stop  offset="1" style="stop-color:#012E29"/>
</radialGradient>
<path opacity="0.3" fill="url(#SVGID_19_)" d="M950,686.961v-0.008C909,457.818,867.145,228.916,825.368,0h-85.929
	c68.858,255.765,137.356,511.372,205.761,766.835L950,686.961z"/>
<radialGradient id="SVGID_20_" cx="968.9136" cy="1019.5518" r="1782.0753" gradientTransform="matrix(0.9994 -0.0336 0.0336 0.9994 2.382 33.1889)" gradientUnits="userSpaceOnUse">
	<stop  offset="0.0242" style="stop-color:#3E6D68"/>
	<stop  offset="1" style="stop-color:#012E29"/>
</radialGradient>
<path opacity="0.3" fill="url(#SVGID_20_)" d="M934,787.069C844,525.136,754.069,262.562,663.834,0h-95.05
	C690.677,276.856,812,553.188,934,829.926V787.069z"/>
<radialGradient id="SVGID_21_" cx="969.0884" cy="1019.5557" r="1782.131" gradientTransform="matrix(0.9994 -0.0336 0.0336 0.9994 2.382 33.1889)" gradientUnits="userSpaceOnUse">
	<stop  offset="0.0242" style="stop-color:#3E6D68"/>
	<stop  offset="1" style="stop-color:#012E29"/>
</radialGradient>
<path opacity="0.3" fill="url(#SVGID_21_)" d="M1136.598,970.17c0.08,0.028,0.148,0.053,0.205,0.073
	c0.13,0.046,0.197,0.069,0.197,0.069v4.773c442.474-37.749,885.617-73.387,1328-110.872V742.246
	c-446.41,74.149-892.341,149.046-1338.183,223.69C1131.621,968.318,1135.396,969.737,1136.598,970.17z"/>
<radialGradient id="SVGID_22_" cx="969.0562" cy="1019.5791" r="1782.1628" gradientTransform="matrix(0.9994 -0.0336 0.0336 0.9994 2.382 33.1889)" gradientUnits="userSpaceOnUse">
	<stop  offset="0.0242" style="stop-color:#3E6D68"/>
	<stop  offset="1" style="stop-color:#012E29"/>
</radialGradient>
<path opacity="0.3" fill="url(#SVGID_22_)" d="M1086.605,928h7.996c0,0.25,0.002,0.486,0.007,0.713
	c0.032,1.58,0.174,2.625,0.406,3.952c445.02-263.271,890.033-526.995,1334.178-790.287c13.7-8.124,25.563-15.159,35.808-21.234V0
	h-70.697c-12.66,8.993-28.307,20.125-47.517,33.768C1926.251,331.431,1507.318,630,1086.605,928z"/>
<radialGradient id="SVGID_23_" cx="969.0859" cy="1019.5615" r="1782.1788" gradientTransform="matrix(0.9994 -0.0336 0.0336 0.9994 2.382 33.1889)" gradientUnits="userSpaceOnUse">
	<stop  offset="0.0242" style="stop-color:#3E6D68"/>
	<stop  offset="1" style="stop-color:#012E29"/>
</radialGradient>
<path opacity="0.3" fill="url(#SVGID_23_)" d="M874,970.313c0,0,0.02-0.007,0.06-0.021c0.074-0.026,0.215-0.076,0.418-0.15
	c1.421-0.52,5.87-2.224,11.384-5.084C437.549,883.746-9.542,802.116-458,721.269v122.404
	c444.045,43.541,887.724,86.301,1332,129.992V970.313z"/>
<radialGradient id="SVGID_24_" cx="969.0581" cy="1019.5566" r="1782.1605" gradientTransform="matrix(0.9994 -0.0336 0.0336 0.9994 2.382 33.1889)" gradientUnits="userSpaceOnUse">
	<stop  offset="0.0242" style="stop-color:#3E6D68"/>
	<stop  offset="1" style="stop-color:#012E29"/>
</radialGradient>
<path opacity="0.3" fill="url(#SVGID_24_)" d="M1097.039,939.276c1.188,2.701,2.758,5.228,4.587,7.582
	C1555.729,762.779,2011.541,581.338,2465,396.425v-145.12C2008.859,481.139,1551.973,708.696,1097.039,939.276L1097.039,939.276z"/>
<path opacity="0.3" fill="none" d="M1004,998h0.345c-0.129-1.541-0.345-4.858-0.345-9.899V998z"/>
<path fill="#515151" d="M1005,989.099v-0.166v-0.002v-0.132v-0.002v-0.139v-0.001v-0.114v-0.001v-0.125v-0.104v-0.001v-0.113v-0.001
	v-0.096v-0.122v-0.623v-0.107v-0.111v-0.001v-0.116v-0.001v-0.118v-0.001v-0.142v-0.002v-0.12v-0.002v-0.163v-0.002v-0.162v-0.002
	v-0.201v-0.003v-0.205v-0.003V985.6v-0.003v-0.303v-0.004v-0.441v-0.004v-0.503v-0.006v-0.812v-0.008v-1.107c0-0.003,0-0.007,0-0.01
	c0-0.707,0-1.437,0-2.182c0-0.005,0-0.01,0-0.015v-4.174v-0.025c0-6.252,0-13.573,0-21.804c0-0.032,0-0.064,0-0.097V521.092
	l-5,3.344v14.488l-7.297,1.085l0.061,0.495l0.088,0.496c-0.002,0-0.003,0-0.004,0c-0.58-1-1.604-0.86-2.084-1.157
	c-3.209-1.989-4.764-7.605-4.764-7.605v-91.383l-5.939-10.03l0.248,0.01l-0.663,3.348l-10.168,43.449
	c-8.919,34.545-11.579,51.262-11.579,51.262c2.226,22.29,34.102,40.119,34.102,40.119v24.516c-4-1.113-12.842,5.574-12.842,5.574
	l-6.416,72.434c-0.709,0.177-1.305,0.361-2.047,0.55c-0.002,0.001,0.058,0.001,0.055,0.002c-8.607,2.188-19.535,5.022-19.535,5.022
	L950,687.953v0.008l-4.299,79.874l0.246,0.067l0.161,0.553l0.155,0.545h-0.019H934v19.069v42.856V853h-0.125H929v15.529v17.078
	v15.257v13.388v11.283V930h-6.172h-5.537c0,2-0.222,3.381-0.621,5.229c-0.489,2.27-1.254,4.179-2.242,6.241
	c-1.236,2.582-2.818,4.871-4.637,7.126c-1.603,1.987-3.387,3.782-5.278,5.513c-2.82,2.584-5.876,4.849-8.919,6.858
	c-3.017,1.991-5.989,3.685-8.732,5.106c-5.514,2.86-9.963,4.556-11.384,5.075c-0.203,0.074-0.845,0.12-0.918,0.146
	c-0.04,0.014-0.56,0.017-0.56,0.017v3.353v8.836v10.13V1000h131v-10.899V989.099z"/>
<path fill="#515151" d="M1136,985.224v-9.138v-4.773c0,0,0.433-0.023,0.303-0.069c-0.057-0.021,0.125-0.045,0.045-0.073
	c-1.202-0.433-4.854-1.852-9.656-4.233c-3.25-1.611-6.93-3.664-10.672-6.153c-0.001-0.001,0.029-0.002,0.027-0.003
	c-3.045-2.025-6.089-4.337-8.898-6.937c-0.001-0.001,0.007-0.001,0.006-0.002c-1.999-1.849-3.871-3.846-5.531-5.982l0.001-0.001
	c-1.829-2.354-3.397-4.881-4.585-7.582v-0.001c-0.926-2.105-1.62-4.295-2.024-6.609c0,0,0,0,0-0.001
	c-0.232-1.327-0.374-1.872-0.406-3.452c-0.005-0.227-0.007-0.213-0.007-0.213h-7.996H1081v-6.785v-11.282V900.7v-16.414v-16.421V853
	h-3.443H1076v-25.174v-41.759V769h-9.969h-0.409l-4.411-72.582l-1.162-19.182c0,0-8.615-2.415-16.656-4.489
	c-0.003-0.001-0.006-0.063-0.008-0.064c-1.546-0.399-3.07-0.788-4.508-1.147l-6.685-72.434c0,0-6.492-4.936-11.179-5.611
	c-0.028-0.004-0.561-0.011-0.59-0.015c-0.768-0.098-2.424-0.098-2.424,0.052v-24.516c0,0,1.615-0.666,3.549-1.883
	c0.033-0.021,0.311-0.038,0.344-0.059c8.235-5.188,29.602-20.233,31.391-38.178c0,0-2.221-16.717-11.141-51.262L1031,430.824v0.013
	l-0.158,0.284l-3.197,4.558l-0.692,0.288l-3.952,4.888v71.388v19.995c0,0,0.442,1.503-0.294,3.2c-0.818,1.887-2.396,4.014-4.747,4.6
	l-7.959-1.113v-14.488l-5.784-3.344c0,0-0.216,312.913-0.216,433.012c0,0.032,0,0.064,0,0.097c0,8.23,0,15.552,0,21.804v0.025v4.174
	c0,0.005,0,0.01,0,0.015c0,0.745,0,1.475,0,2.182c0,0.003,0,0.007,0,0.01v1.107v0.008v0.812v0.006v0.503v0.004v0.441v0.004v0.303
	v0.003v0.295v0.003v0.205v0.003v0.201v0.002v0.162v0.002v0.163v0.002v0.12v0.002v0.142v0.001v0.118v0.001v0.116v0.001v0.111v0.107
	v0.623v0.122v0.096v0.001v0.113v0.001v0.104v0.125v0.001v0.114v0.001v0.139v0.002v0.132v0.002v0.166v0.002
	c0,5.041,1.216,8.899,1.345,10.899H1136v-3.354V985.224z"/>
</svg>
